<svg xmlns="http://www.w3.org/2000/svg" viewBox="0 0 400 500">
  <!-- Background -->
  <rect width="400" height="500" fill="#0f172a"/>

  <!-- Header -->
  <rect x="0" y="0" width="400" height="60" fill="rgba(14, 165, 233, 0.9)"/>
  <text x="200" y="40" font-size="24" font-weight="bold" fill="white" text-anchor="middle">
    Global Leaderboard
  </text>

  <!-- Filter Tabs -->
  <rect x="20" y="75" width="360" height="35" rx="6" fill="rgba(255,255,255,0.05)"/>
  <text x="50" y="100" font-size="12" font-weight="bold" fill="#0ea5e9">THIS WEEK</text>
  <text x="150" y="100" font-size="12" fill="#94a3b8">ALL TIME</text>
  <text x="260" y="100" font-size="12" fill="#94a3b8">FRIENDS</text>

  <!-- Rank 1 (Gold) -->
  <g>
    <rect x="20" y="130" width="360" height="50" rx="6" fill="rgba(251, 191, 36, 0.1)" stroke="#fbbf24" stroke-width="2"/>
    <text x="40" y="160" font-size="18" font-weight="bold" fill="#fbbf24">🥇</text>
    <text x="70" y="148" font-size="12" font-weight="bold" fill="#fbbf24">ProCoder_7</text>
    <text x="70" y="165" font-size="11" fill="#94a3b8">Rank 1 • 8,240 pts</text>
    <text x="360" y="160" font-size="14" font-weight="bold" fill="#fbbf24" text-anchor="end">↑</text>
  </g>

  <!-- Rank 2 (Silver) -->
  <g>
    <rect x="20" y="190" width="360" height="50" rx="6" fill="rgba(100, 116, 139, 0.1)" stroke="#64748b" stroke-width="1.5"/>
    <text x="40" y="220" font-size="18" font-weight="bold" fill="#c0c5ce">🥈</text>
    <text x="70" y="208" font-size="12" font-weight="bold" fill="#e2e8f0">LogicMaster_9</text>
    <text x="70" y="225" font-size="11" fill="#94a3b8">Rank 2 • 7,890 pts</text>
    <text x="360" y="220" font-size="14" font-weight="bold" fill="#64748b" text-anchor="end">↓</text>
  </g>

  <!-- Rank 3 (Bronze) -->
  <g>
    <rect x="20" y="250" width="360" height="50" rx="6" fill="rgba(180, 83, 9, 0.1)" stroke="#b45309" stroke-width="1.5"/>
    <text x="40" y="280" font-size="18" font-weight="bold" fill="#d97706">🥉</text>
    <text x="70" y="268" font-size="12" font-weight="bold" fill="#e2e8f0">CodeCrusher_12</text>
    <text x="70" y="285" font-size="11" fill="#94a3b8">Rank 3 • 7,560 pts</text>
    <text x="360" y="280" font-size="14" font-weight="bold" fill="#b45309" text-anchor="end">→</text>
  </g>

  <!-- Rank 4 -->
  <g>
    <rect x="20" y="310" width="360" height="45" rx="6" fill="rgba(255,255,255,0.05)"/>
    <text x="40" y="337" font-size="14" font-weight="bold" fill="#e2e8f0">4.</text>
    <text x="70" y="330" font-size="12" font-weight="bold" fill="#e2e8f0">PuzzlePro_5</text>
    <text x="70" y="345" font-size="11" fill="#94a3b8">Rank 4 • 7,120 pts</text>
  </g>

  <!-- Rank 5 (You) -->
  <g>
    <rect x="20" y="365" width="360" height="50" rx="6" fill="rgba(14, 165, 233, 0.2)" stroke="#0ea5e9" stroke-width="2"/>
    <text x="40" y="393" font-size="14" font-weight="bold" fill="#0ea5e9">5.</text>
    <text x="70" y="386" font-size="12" font-weight="bold" fill="#0ea5e9">You</text>
    <text x="70" y="403" font-size="11" fill="#94a3b8">Rank 5 • 6,850 pts</text>
    <circle cx="360" cy="390" r="12" fill="#0ea5e9"/>
    <text x="360" y="396" font-size="14" fill="white" text-anchor="middle" font-weight="bold">✓</text>
  </g>

  <!-- View More Button -->
  <rect x="50" y="445" width="300" height="40" rx="6" fill="rgba(14, 165, 233, 0.1)" stroke="#0ea5e9" stroke-width="1.5"/>
  <text x="200" y="472" font-size="13" font-weight="bold" fill="#0ea5e9" text-anchor="middle">
    View Full Leaderboard
  </text>
</svg>
